<?xml version="1.0" encoding="UTF-8"?>
<mxfile host="app.diagrams.net" modified="2021-07-08T14:02:03.259Z" agent="5.0 (Macintosh; Intel Mac OS X 10_15_7) AppleWebKit/537.36 (KHTML, like Gecko) Chrome/91.0.4472.114 Safari/537.36" etag="9WUt9b1ILMzwJvUdegEK" version="14.8.4" type="google">
  <diagram id="m26uZY4PXE92KW5Cwaal" name="Page-1">
    <mxGraphModel dx="1026" dy="801" grid="1" gridSize="10" guides="1" tooltips="1" connect="1" arrows="1" fold="1" page="1" pageScale="1" pageWidth="1169" pageHeight="1654" math="0" shadow="0">
      <root>
        <mxCell id="0" />
        <mxCell id="1" parent="0" />
        <mxCell id="lmmXfwy7e7gXGWIqqrCF-15" value="us-west-1" style="points=[[0,0],[0.25,0],[0.5,0],[0.75,0],[1,0],[1,0.25],[1,0.5],[1,0.75],[1,1],[0.75,1],[0.5,1],[0.25,1],[0,1],[0,0.75],[0,0.5],[0,0.25]];outlineConnect=0;gradientColor=none;html=1;whiteSpace=wrap;fontSize=12;fontStyle=0;shape=mxgraph.aws4.group;grIcon=mxgraph.aws4.group_region;strokeColor=#147EBA;fillColor=none;verticalAlign=top;align=left;spacingLeft=30;fontColor=#147EBA;dashed=0;" parent="1" vertex="1">
          <mxGeometry x="680" y="150" width="350" height="430" as="geometry" />
        </mxCell>
        <mxCell id="IDQ6sd4oQdsC0rJEgm3i-1" value="sa-east-1" style="points=[[0,0],[0.25,0],[0.5,0],[0.75,0],[1,0],[1,0.25],[1,0.5],[1,0.75],[1,1],[0.75,1],[0.5,1],[0.25,1],[0,1],[0,0.75],[0,0.5],[0,0.25]];outlineConnect=0;gradientColor=none;html=1;whiteSpace=wrap;fontSize=12;fontStyle=0;shape=mxgraph.aws4.group;grIcon=mxgraph.aws4.group_region;strokeColor=#147EBA;fillColor=none;verticalAlign=top;align=left;spacingLeft=30;fontColor=#147EBA;dashed=0;" parent="1" vertex="1">
          <mxGeometry x="150" y="150" width="350" height="430" as="geometry" />
        </mxCell>
        <mxCell id="lmmXfwy7e7gXGWIqqrCF-12" value="Service VPC" style="points=[[0,0],[0.25,0],[0.5,0],[0.75,0],[1,0],[1,0.25],[1,0.5],[1,0.75],[1,1],[0.75,1],[0.5,1],[0.25,1],[0,1],[0,0.75],[0,0.5],[0,0.25]];outlineConnect=0;gradientColor=none;html=1;whiteSpace=wrap;fontSize=12;fontStyle=0;shape=mxgraph.aws4.group;grIcon=mxgraph.aws4.group_vpc;strokeColor=#248814;fillColor=none;verticalAlign=top;align=left;spacingLeft=30;fontColor=#AAB7B8;dashed=0;" parent="1" vertex="1">
          <mxGeometry x="170" y="460" width="310" height="110" as="geometry" />
        </mxCell>
        <mxCell id="IDQ6sd4oQdsC0rJEgm3i-3" value="VPC 10.0.0.0/16" style="points=[[0,0],[0.25,0],[0.5,0],[0.75,0],[1,0],[1,0.25],[1,0.5],[1,0.75],[1,1],[0.75,1],[0.5,1],[0.25,1],[0,1],[0,0.75],[0,0.5],[0,0.25]];outlineConnect=0;gradientColor=none;html=1;whiteSpace=wrap;fontSize=12;fontStyle=0;shape=mxgraph.aws4.group;grIcon=mxgraph.aws4.group_vpc;strokeColor=#248814;fillColor=none;verticalAlign=top;align=left;spacingLeft=30;fontColor=#AAB7B8;dashed=0;" parent="1" vertex="1">
          <mxGeometry x="170" y="200" width="310" height="250" as="geometry" />
        </mxCell>
        <mxCell id="IDQ6sd4oQdsC0rJEgm3i-8" style="edgeStyle=orthogonalEdgeStyle;rounded=0;orthogonalLoop=1;jettySize=auto;html=1;entryX=1;entryY=0.5;entryDx=0;entryDy=0;" parent="1" source="IDQ6sd4oQdsC0rJEgm3i-7" target="IDQ6sd4oQdsC0rJEgm3i-3" edge="1">
          <mxGeometry relative="1" as="geometry" />
        </mxCell>
        <mxCell id="IDQ6sd4oQdsC0rJEgm3i-9" style="edgeStyle=orthogonalEdgeStyle;rounded=0;orthogonalLoop=1;jettySize=auto;html=1;" parent="1" source="IDQ6sd4oQdsC0rJEgm3i-7" target="lmmXfwy7e7gXGWIqqrCF-17" edge="1">
          <mxGeometry relative="1" as="geometry">
            <mxPoint x="700" y="325" as="targetPoint" />
          </mxGeometry>
        </mxCell>
        <mxCell id="IDQ6sd4oQdsC0rJEgm3i-7" value="VPC peering" style="outlineConnect=0;fontColor=#232F3E;gradientColor=none;fillColor=#5A30B5;strokeColor=none;dashed=0;verticalLabelPosition=bottom;verticalAlign=top;align=center;html=1;fontSize=12;fontStyle=0;aspect=fixed;pointerEvents=1;shape=mxgraph.aws4.peering;" parent="1" vertex="1">
          <mxGeometry x="545" y="286" width="78" height="78" as="geometry" />
        </mxCell>
        <mxCell id="IDQ6sd4oQdsC0rJEgm3i-11" value="primary" style="edgeStyle=orthogonalEdgeStyle;rounded=0;orthogonalLoop=1;jettySize=auto;html=1;" parent="1" source="IDQ6sd4oQdsC0rJEgm3i-10" target="lmmXfwy7e7gXGWIqqrCF-8" edge="1">
          <mxGeometry x="-0.1038" relative="1" as="geometry">
            <mxPoint as="offset" />
          </mxGeometry>
        </mxCell>
        <mxCell id="IDQ6sd4oQdsC0rJEgm3i-12" value="standby" style="edgeStyle=orthogonalEdgeStyle;rounded=0;orthogonalLoop=1;jettySize=auto;html=1;" parent="1" source="IDQ6sd4oQdsC0rJEgm3i-10" target="lmmXfwy7e7gXGWIqqrCF-22" edge="1">
          <mxGeometry relative="1" as="geometry">
            <mxPoint x="840" y="210" as="targetPoint" />
          </mxGeometry>
        </mxCell>
        <mxCell id="IDQ6sd4oQdsC0rJEgm3i-10" value="Private Hosted Zone" style="outlineConnect=0;fontColor=#232F3E;gradientColor=#945DF2;gradientDirection=north;fillColor=#5A30B5;strokeColor=#ffffff;dashed=0;verticalLabelPosition=bottom;verticalAlign=top;align=center;html=1;fontSize=12;fontStyle=0;aspect=fixed;shape=mxgraph.aws4.resourceIcon;resIcon=mxgraph.aws4.route_53;" parent="1" vertex="1">
          <mxGeometry x="549" y="143" width="78" height="78" as="geometry" />
        </mxCell>
        <mxCell id="IDQ6sd4oQdsC0rJEgm3i-14" value="Private subnet" style="points=[[0,0],[0.25,0],[0.5,0],[0.75,0],[1,0],[1,0.25],[1,0.5],[1,0.75],[1,1],[0.75,1],[0.5,1],[0.25,1],[0,1],[0,0.75],[0,0.5],[0,0.25]];outlineConnect=0;gradientColor=none;html=1;whiteSpace=wrap;fontSize=12;fontStyle=0;shape=mxgraph.aws4.group;grIcon=mxgraph.aws4.group_security_group;grStroke=0;strokeColor=#147EBA;fillColor=#E6F2F8;verticalAlign=top;align=left;spacingLeft=30;fontColor=#147EBA;dashed=0;" parent="1" vertex="1">
          <mxGeometry x="179" y="340" width="282" height="100" as="geometry" />
        </mxCell>
        <mxCell id="lmmXfwy7e7gXGWIqqrCF-13" style="edgeStyle=orthogonalEdgeStyle;rounded=0;orthogonalLoop=1;jettySize=auto;html=1;" parent="1" source="lmmXfwy7e7gXGWIqqrCF-7" target="lmmXfwy7e7gXGWIqqrCF-11" edge="1">
          <mxGeometry relative="1" as="geometry" />
        </mxCell>
        <mxCell id="lmmXfwy7e7gXGWIqqrCF-7" value="API" style="outlineConnect=0;fontColor=#232F3E;gradientColor=#F54749;gradientDirection=north;fillColor=#C7131F;strokeColor=#ffffff;dashed=0;verticalLabelPosition=bottom;verticalAlign=top;align=center;html=1;fontSize=12;fontStyle=0;aspect=fixed;shape=mxgraph.aws4.resourceIcon;resIcon=mxgraph.aws4.api_gateway;" parent="1" vertex="1">
          <mxGeometry x="390" y="490" width="50" height="50" as="geometry" />
        </mxCell>
        <mxCell id="lmmXfwy7e7gXGWIqqrCF-14" style="edgeStyle=orthogonalEdgeStyle;rounded=0;orthogonalLoop=1;jettySize=auto;html=1;" parent="1" source="lmmXfwy7e7gXGWIqqrCF-8" target="lmmXfwy7e7gXGWIqqrCF-11" edge="1">
          <mxGeometry relative="1" as="geometry" />
        </mxCell>
        <mxCell id="lmmXfwy7e7gXGWIqqrCF-8" value="NLB" style="outlineConnect=0;fontColor=#232F3E;gradientColor=none;fillColor=#5A30B5;strokeColor=none;dashed=0;verticalLabelPosition=bottom;verticalAlign=top;align=center;html=1;fontSize=12;fontStyle=0;aspect=fixed;pointerEvents=1;shape=mxgraph.aws4.network_load_balancer;" parent="1" vertex="1">
          <mxGeometry x="390" y="261" width="50" height="50" as="geometry" />
        </mxCell>
        <mxCell id="lmmXfwy7e7gXGWIqqrCF-11" value="" style="outlineConnect=0;fontColor=#232F3E;gradientColor=none;fillColor=#5A30B5;strokeColor=none;dashed=0;verticalLabelPosition=bottom;verticalAlign=top;align=center;html=1;fontSize=12;fontStyle=0;aspect=fixed;pointerEvents=1;shape=mxgraph.aws4.endpoints;" parent="1" vertex="1">
          <mxGeometry x="391" y="370" width="48" height="48" as="geometry" />
        </mxCell>
        <mxCell id="lmmXfwy7e7gXGWIqqrCF-16" value="Service VPC" style="points=[[0,0],[0.25,0],[0.5,0],[0.75,0],[1,0],[1,0.25],[1,0.5],[1,0.75],[1,1],[0.75,1],[0.5,1],[0.25,1],[0,1],[0,0.75],[0,0.5],[0,0.25]];outlineConnect=0;gradientColor=none;html=1;whiteSpace=wrap;fontSize=12;fontStyle=0;shape=mxgraph.aws4.group;grIcon=mxgraph.aws4.group_vpc;strokeColor=#248814;fillColor=none;verticalAlign=top;align=left;spacingLeft=30;fontColor=#AAB7B8;dashed=0;" parent="1" vertex="1">
          <mxGeometry x="700" y="460" width="310" height="110" as="geometry" />
        </mxCell>
        <mxCell id="lmmXfwy7e7gXGWIqqrCF-17" value="VPC 10.0.0.0/16" style="points=[[0,0],[0.25,0],[0.5,0],[0.75,0],[1,0],[1,0.25],[1,0.5],[1,0.75],[1,1],[0.75,1],[0.5,1],[0.25,1],[0,1],[0,0.75],[0,0.5],[0,0.25]];outlineConnect=0;gradientColor=none;html=1;whiteSpace=wrap;fontSize=12;fontStyle=0;shape=mxgraph.aws4.group;grIcon=mxgraph.aws4.group_vpc;strokeColor=#248814;fillColor=none;verticalAlign=top;align=left;spacingLeft=30;fontColor=#AAB7B8;dashed=0;" parent="1" vertex="1">
          <mxGeometry x="700" y="200" width="310" height="250" as="geometry" />
        </mxCell>
        <mxCell id="lmmXfwy7e7gXGWIqqrCF-18" value="Private subnet" style="points=[[0,0],[0.25,0],[0.5,0],[0.75,0],[1,0],[1,0.25],[1,0.5],[1,0.75],[1,1],[0.75,1],[0.5,1],[0.25,1],[0,1],[0,0.75],[0,0.5],[0,0.25]];outlineConnect=0;gradientColor=none;html=1;whiteSpace=wrap;fontSize=12;fontStyle=0;shape=mxgraph.aws4.group;grIcon=mxgraph.aws4.group_security_group;grStroke=0;strokeColor=#147EBA;fillColor=#E6F2F8;verticalAlign=top;align=left;spacingLeft=30;fontColor=#147EBA;dashed=0;" parent="1" vertex="1">
          <mxGeometry x="709" y="340" width="282" height="100" as="geometry" />
        </mxCell>
        <mxCell id="lmmXfwy7e7gXGWIqqrCF-19" style="edgeStyle=orthogonalEdgeStyle;rounded=0;orthogonalLoop=1;jettySize=auto;html=1;" parent="1" source="lmmXfwy7e7gXGWIqqrCF-20" target="lmmXfwy7e7gXGWIqqrCF-23" edge="1">
          <mxGeometry relative="1" as="geometry" />
        </mxCell>
        <mxCell id="lmmXfwy7e7gXGWIqqrCF-20" value="API" style="outlineConnect=0;fontColor=#232F3E;gradientColor=#F54749;gradientDirection=north;fillColor=#C7131F;strokeColor=#ffffff;dashed=0;verticalLabelPosition=bottom;verticalAlign=top;align=center;html=1;fontSize=12;fontStyle=0;aspect=fixed;shape=mxgraph.aws4.resourceIcon;resIcon=mxgraph.aws4.api_gateway;" parent="1" vertex="1">
          <mxGeometry x="926" y="490" width="50" height="50" as="geometry" />
        </mxCell>
        <mxCell id="lmmXfwy7e7gXGWIqqrCF-21" style="edgeStyle=orthogonalEdgeStyle;rounded=0;orthogonalLoop=1;jettySize=auto;html=1;" parent="1" source="lmmXfwy7e7gXGWIqqrCF-22" target="lmmXfwy7e7gXGWIqqrCF-23" edge="1">
          <mxGeometry relative="1" as="geometry" />
        </mxCell>
        <mxCell id="lmmXfwy7e7gXGWIqqrCF-22" value="NLB" style="outlineConnect=0;fontColor=#232F3E;gradientColor=none;fillColor=#5A30B5;strokeColor=none;dashed=0;verticalLabelPosition=bottom;verticalAlign=top;align=center;html=1;fontSize=12;fontStyle=0;aspect=fixed;pointerEvents=1;shape=mxgraph.aws4.network_load_balancer;" parent="1" vertex="1">
          <mxGeometry x="926" y="250" width="50" height="50" as="geometry" />
        </mxCell>
        <mxCell id="lmmXfwy7e7gXGWIqqrCF-23" value="" style="outlineConnect=0;fontColor=#232F3E;gradientColor=none;fillColor=#5A30B5;strokeColor=none;dashed=0;verticalLabelPosition=bottom;verticalAlign=top;align=center;html=1;fontSize=12;fontStyle=0;aspect=fixed;pointerEvents=1;shape=mxgraph.aws4.endpoints;" parent="1" vertex="1">
          <mxGeometry x="927" y="370" width="48" height="48" as="geometry" />
        </mxCell>
        <mxCell id="lmmXfwy7e7gXGWIqqrCF-25" value="Certificate" style="outlineConnect=0;fontColor=#232F3E;gradientColor=none;fillColor=#277116;strokeColor=none;dashed=0;verticalLabelPosition=bottom;verticalAlign=top;align=center;html=1;fontSize=12;fontStyle=0;aspect=fixed;pointerEvents=1;shape=mxgraph.aws4.certificate_manager;" parent="1" vertex="1">
          <mxGeometry x="335" y="261" width="30.26" height="40" as="geometry" />
        </mxCell>
        <mxCell id="lmmXfwy7e7gXGWIqqrCF-26" value="Certificate" style="outlineConnect=0;fontColor=#232F3E;gradientColor=none;fillColor=#277116;strokeColor=none;dashed=0;verticalLabelPosition=bottom;verticalAlign=top;align=center;html=1;fontSize=12;fontStyle=0;aspect=fixed;pointerEvents=1;shape=mxgraph.aws4.certificate_manager;" parent="1" vertex="1">
          <mxGeometry x="880" y="255" width="37.82" height="50" as="geometry" />
        </mxCell>
        <mxCell id="8dgGi4iEOYmhPtPlvaup-1" value="Public subnet" style="points=[[0,0],[0.25,0],[0.5,0],[0.75,0],[1,0],[1,0.25],[1,0.5],[1,0.75],[1,1],[0.75,1],[0.5,1],[0.25,1],[0,1],[0,0.75],[0,0.5],[0,0.25]];outlineConnect=0;gradientColor=none;html=1;whiteSpace=wrap;fontSize=12;fontStyle=0;shape=mxgraph.aws4.group;grIcon=mxgraph.aws4.group_security_group;grStroke=0;strokeColor=#248814;fillColor=#E9F3E6;verticalAlign=top;align=left;spacingLeft=30;fontColor=#248814;dashed=0;" parent="1" vertex="1">
          <mxGeometry x="180" y="230" width="140" height="100" as="geometry" />
        </mxCell>
        <mxCell id="8dgGi4iEOYmhPtPlvaup-2" value="NAT GW" style="outlineConnect=0;fontColor=#232F3E;gradientColor=none;fillColor=#5A30B5;strokeColor=none;dashed=0;verticalLabelPosition=bottom;verticalAlign=top;align=center;html=1;fontSize=12;fontStyle=0;aspect=fixed;pointerEvents=1;shape=mxgraph.aws4.nat_gateway;" parent="1" vertex="1">
          <mxGeometry x="266" y="261" width="38" height="38" as="geometry" />
        </mxCell>
        <mxCell id="8dgGi4iEOYmhPtPlvaup-3" value="Client" style="outlineConnect=0;fontColor=#232F3E;gradientColor=none;fillColor=#D86613;strokeColor=none;dashed=0;verticalLabelPosition=bottom;verticalAlign=top;align=center;html=1;fontSize=12;fontStyle=0;aspect=fixed;pointerEvents=1;shape=mxgraph.aws4.instance2;" parent="1" vertex="1">
          <mxGeometry x="200" y="261" width="40" height="40" as="geometry" />
        </mxCell>
        <mxCell id="8dgGi4iEOYmhPtPlvaup-4" value="Public subnet" style="points=[[0,0],[0.25,0],[0.5,0],[0.75,0],[1,0],[1,0.25],[1,0.5],[1,0.75],[1,1],[0.75,1],[0.5,1],[0.25,1],[0,1],[0,0.75],[0,0.5],[0,0.25]];outlineConnect=0;gradientColor=none;html=1;whiteSpace=wrap;fontSize=12;fontStyle=0;shape=mxgraph.aws4.group;grIcon=mxgraph.aws4.group_security_group;grStroke=0;strokeColor=#248814;fillColor=#E9F3E6;verticalAlign=top;align=left;spacingLeft=30;fontColor=#248814;dashed=0;" parent="1" vertex="1">
          <mxGeometry x="709" y="230" width="140" height="100" as="geometry" />
        </mxCell>
        <mxCell id="8dgGi4iEOYmhPtPlvaup-5" value="NAT GW" style="outlineConnect=0;fontColor=#232F3E;gradientColor=none;fillColor=#5A30B5;strokeColor=none;dashed=0;verticalLabelPosition=bottom;verticalAlign=top;align=center;html=1;fontSize=12;fontStyle=0;aspect=fixed;pointerEvents=1;shape=mxgraph.aws4.nat_gateway;" parent="1" vertex="1">
          <mxGeometry x="799" y="262" width="38" height="38" as="geometry" />
        </mxCell>
        <mxCell id="8dgGi4iEOYmhPtPlvaup-6" value="Client" style="outlineConnect=0;fontColor=#232F3E;gradientColor=none;fillColor=#D86613;strokeColor=none;dashed=0;verticalLabelPosition=bottom;verticalAlign=top;align=center;html=1;fontSize=12;fontStyle=0;aspect=fixed;pointerEvents=1;shape=mxgraph.aws4.instance2;" parent="1" vertex="1">
          <mxGeometry x="729" y="262" width="40" height="40" as="geometry" />
        </mxCell>
      </root>
    </mxGraphModel>
  </diagram>
</mxfile>
